<?xml version="1.0" standalone="no"?><!DOCTYPE svg PUBLIC "-//W3C//DTD SVG 1.1//EN" "http://www.w3.org/Graphics/SVG/1.1/DTD/svg11.dtd"><svg t="1658289416080" class="icon" viewBox="0 0 1024 1024" version="1.1" xmlns="http://www.w3.org/2000/svg" p-id="10543" width="32" height="32" xmlns:xlink="http://www.w3.org/1999/xlink"><defs><style type="text/css"></style></defs><path d="M97.28 508.16H27.52c-2.56 0-5.12-1.92-6.4-4.48-1.28-2.56 0-5.76 1.92-7.68l260.48-236.8c2.56-2.56 7.04-2.56 9.6 0.64 2.56 2.56 2.56 7.04-0.64 9.6L45.44 494.08h51.84c3.84 0 7.04 3.2 7.04 7.04-0.64 3.84-3.2 7.04-7.04 7.04z" fill="#211D1C" p-id="10544"></path><path d="M473.6 807.04H102.4c-3.84 0-7.04-3.2-7.04-7.04V474.24c0-1.92 0.64-3.84 2.56-5.12L282.88 300.8c2.56-2.56 6.4-2.56 8.96 0l183.04 166.4c3.2 0.64 5.76 3.2 5.76 7.04V800c0 3.84-3.2 7.04-7.04 7.04z m-364.16-14.08H467.2V478.72L287.36 315.52 109.44 477.44v315.52zM924.16 807.04c-3.84 0-7.04-3.2-7.04-7.04V501.12c0-3.84 3.2-7.04 7.04-7.04 3.84 0 7.04 3.2 7.04 7.04V800c0 3.84-3.2 7.04-7.04 7.04z" fill="#211D1C" p-id="10545"></path><path d="M990.08 508.16h-441.6c-1.92 0-3.2-0.64-4.48-1.92l-260.48-236.8c-1.92-1.92-2.56-5.12-1.92-7.68 1.28-2.56 3.84-4.48 6.4-4.48h441.6c1.92 0 3.2 0.64 4.48 1.92l260.48 236.8c1.92 1.92 2.56 5.12 1.92 7.68-0.64 2.56-3.2 4.48-6.4 4.48z m-439.04-14.08H972.8l-245.12-222.72H305.92l245.12 222.72zM924.16 807.04H473.6c-3.84 0-7.04-3.2-7.04-7.04 0-3.84 3.2-7.04 7.04-7.04h450.56c3.84 0 7.04 3.2 7.04 7.04 0 3.84-3.2 7.04-7.04 7.04z" fill="#211D1C" p-id="10546"></path><path d="M517.76 481.28H473.6c-3.84 0-7.04-3.2-7.04-7.04 0-3.84 3.2-7.04 7.04-7.04h43.52c3.84 0 7.04 3.2 7.04 7.04 0.64 3.84-2.56 7.04-6.4 7.04zM508.16 745.6h-1.28c-3.84 0-7.04-3.2-7.04-7.04 0-3.84 3.2-7.04 7.04-7.04h1.28c3.84 0 7.04 3.2 7.04 7.04 0 3.84-3.2 7.04-7.04 7.04zM872.32 745.6h-2.56c-3.84 0-7.04-3.2-7.04-7.04 0-3.84 3.2-7.04 7.04-7.04h2.56c3.84 0 7.04 3.2 7.04 7.04 0 3.84-3.2 7.04-7.04 7.04z m-20.48 0h-2.56c-3.84 0-7.04-3.2-7.04-7.04 0-3.84 3.2-7.04 7.04-7.04h2.56c3.84 0 7.04 3.2 7.04 7.04 0 3.84-3.2 7.04-7.04 7.04z m-19.84 0h-2.56c-3.84 0-7.04-3.2-7.04-7.04 0-3.84 3.2-7.04 7.04-7.04h2.56c3.84 0 7.04 3.2 7.04 7.04-0.64 3.84-3.2 7.04-7.04 7.04z m-20.48 0h-2.56c-3.84 0-7.04-3.2-7.04-7.04 0-3.84 3.2-7.04 7.04-7.04h2.56c3.84 0 7.04 3.2 7.04 7.04 0 3.84-3.2 7.04-7.04 7.04z m-19.84 0h-2.56c-3.84 0-7.04-3.2-7.04-7.04 0-3.84 3.2-7.04 7.04-7.04h2.56c3.84 0 7.04 3.2 7.04 7.04-0.64 3.84-3.84 7.04-7.04 7.04z m-20.48 0h-2.56c-3.84 0-7.04-3.2-7.04-7.04 0-3.84 3.2-7.04 7.04-7.04h2.56c3.84 0 7.04 3.2 7.04 7.04 0 3.84-3.2 7.04-7.04 7.04z m-20.48 0h-2.56c-3.84 0-7.04-3.2-7.04-7.04 0-3.84 3.2-7.04 7.04-7.04h2.56c3.84 0 7.04 3.2 7.04 7.04 0 3.84-3.2 7.04-7.04 7.04z m-19.84 0h-2.56c-3.84 0-7.04-3.2-7.04-7.04 0-3.84 3.2-7.04 7.04-7.04h2.56c3.84 0 7.04 3.2 7.04 7.04-0.64 3.84-3.2 7.04-7.04 7.04z m-20.48 0h-2.56c-3.84 0-7.04-3.2-7.04-7.04 0-3.84 3.2-7.04 7.04-7.04h2.56c3.84 0 7.04 3.2 7.04 7.04 0 3.84-3.2 7.04-7.04 7.04z m-19.84 0h-2.56c-3.84 0-7.04-3.2-7.04-7.04 0-3.84 3.2-7.04 7.04-7.04h2.56c3.84 0 7.04 3.2 7.04 7.04-0.64 3.84-3.84 7.04-7.04 7.04z m-20.48 0h-2.56c-3.84 0-7.04-3.2-7.04-7.04 0-3.84 3.2-7.04 7.04-7.04h2.56c3.84 0 7.04 3.2 7.04 7.04 0 3.84-3.2 7.04-7.04 7.04z m-20.48 0h-2.56c-3.84 0-7.04-3.2-7.04-7.04 0-3.84 3.2-7.04 7.04-7.04h2.56c3.84 0 7.04 3.2 7.04 7.04 0 3.84-3.2 7.04-7.04 7.04z m-19.84 0H627.2c-3.84 0-7.04-3.2-7.04-7.04 0-3.84 3.2-7.04 7.04-7.04h2.56c3.84 0 7.04 3.2 7.04 7.04-0.64 3.84-3.2 7.04-7.04 7.04z m-20.48 0h-2.56c-3.84 0-7.04-3.2-7.04-7.04 0-3.84 3.2-7.04 7.04-7.04h2.56c3.84 0 7.04 3.2 7.04 7.04 0 3.84-3.2 7.04-7.04 7.04z m-19.84 0h-2.56c-3.84 0-7.04-3.2-7.04-7.04 0-3.84 3.2-7.04 7.04-7.04h2.56c3.84 0 7.04 3.2 7.04 7.04-0.64 3.84-3.84 7.04-7.04 7.04z m-20.48 0h-2.56c-3.84 0-7.04-3.2-7.04-7.04 0-3.84 3.2-7.04 7.04-7.04h2.56c3.84 0 7.04 3.2 7.04 7.04 0 3.84-3.2 7.04-7.04 7.04z m-20.48 0h-2.56c-3.84 0-7.04-3.2-7.04-7.04 0-3.84 3.2-7.04 7.04-7.04h2.56c3.84 0 7.04 3.2 7.04 7.04 0 3.84-3.2 7.04-7.04 7.04z m-19.84 0h-2.56c-3.84 0-7.04-3.2-7.04-7.04 0-3.84 3.2-7.04 7.04-7.04h2.56c3.84 0 7.04 3.2 7.04 7.04-0.64 3.84-3.2 7.04-7.04 7.04zM890.88 745.6h-1.28c-3.84 0-7.04-3.2-7.04-7.04 0-3.84 3.2-7.04 7.04-7.04h1.28c3.84 0 7.04 3.2 7.04 7.04 0 3.84-3.2 7.04-7.04 7.04zM508.16 688.64h-1.28c-3.84 0-7.04-3.2-7.04-7.04 0-3.84 3.2-7.04 7.04-7.04h1.28c3.84 0 7.04 3.2 7.04 7.04 0 3.84-3.2 7.04-7.04 7.04zM872.32 688.64h-2.56c-3.84 0-7.04-3.2-7.04-7.04 0-3.84 3.2-7.04 7.04-7.04h2.56c3.84 0 7.04 3.2 7.04 7.04 0 3.84-3.2 7.04-7.04 7.04z m-20.48 0h-2.56c-3.84 0-7.04-3.2-7.04-7.04 0-3.84 3.2-7.04 7.04-7.04h2.56c3.84 0 7.04 3.2 7.04 7.04 0 3.84-3.2 7.04-7.04 7.04z m-19.84 0h-2.56c-3.84 0-7.04-3.2-7.04-7.04 0-3.84 3.2-7.04 7.04-7.04h2.56c3.84 0 7.04 3.2 7.04 7.04-0.64 3.84-3.2 7.04-7.04 7.04z m-20.48 0h-2.56c-3.84 0-7.04-3.2-7.04-7.04 0-3.84 3.2-7.04 7.04-7.04h2.56c3.84 0 7.04 3.2 7.04 7.04 0 3.84-3.2 7.04-7.04 7.04z m-19.84 0h-2.56c-3.84 0-7.04-3.2-7.04-7.04 0-3.84 3.2-7.04 7.04-7.04h2.56c3.84 0 7.04 3.2 7.04 7.04-0.64 3.84-3.84 7.04-7.04 7.04z m-20.48 0h-2.56c-3.84 0-7.04-3.2-7.04-7.04 0-3.84 3.2-7.04 7.04-7.04h2.56c3.84 0 7.04 3.2 7.04 7.04 0 3.84-3.2 7.04-7.04 7.04z m-20.48 0h-2.56c-3.84 0-7.04-3.2-7.04-7.04 0-3.84 3.2-7.04 7.04-7.04h2.56c3.84 0 7.04 3.2 7.04 7.04 0 3.84-3.2 7.04-7.04 7.04z m-19.84 0h-2.56c-3.84 0-7.04-3.2-7.04-7.04 0-3.84 3.2-7.04 7.04-7.04h2.56c3.84 0 7.04 3.2 7.04 7.04-0.64 3.84-3.2 7.04-7.04 7.04z m-20.48 0h-2.56c-3.84 0-7.04-3.2-7.04-7.04 0-3.84 3.2-7.04 7.04-7.04h2.56c3.84 0 7.04 3.2 7.04 7.04 0 3.84-3.2 7.04-7.04 7.04z m-19.84 0h-2.56c-3.84 0-7.04-3.2-7.04-7.04 0-3.84 3.2-7.04 7.04-7.04h2.56c3.84 0 7.04 3.2 7.04 7.04-0.64 3.84-3.84 7.04-7.04 7.04z m-20.48 0h-2.56c-3.84 0-7.04-3.2-7.04-7.04 0-3.84 3.2-7.04 7.04-7.04h2.56c3.84 0 7.04 3.2 7.04 7.04 0 3.84-3.2 7.04-7.04 7.04z m-20.48 0h-2.56c-3.84 0-7.04-3.2-7.04-7.04 0-3.84 3.2-7.04 7.04-7.04h2.56c3.84 0 7.04 3.2 7.04 7.04 0 3.84-3.2 7.04-7.04 7.04z m-19.84 0H627.2c-3.84 0-7.04-3.2-7.04-7.04 0-3.84 3.2-7.04 7.04-7.04h2.56c3.84 0 7.04 3.2 7.04 7.04-0.64 3.84-3.2 7.04-7.04 7.04z m-20.48 0h-2.56c-3.84 0-7.04-3.2-7.04-7.04 0-3.84 3.2-7.04 7.04-7.04h2.56c3.84 0 7.04 3.2 7.04 7.04 0 3.84-3.2 7.04-7.04 7.04z m-19.84 0h-2.56c-3.84 0-7.04-3.2-7.04-7.04 0-3.84 3.2-7.04 7.04-7.04h2.56c3.84 0 7.04 3.2 7.04 7.04-0.64 3.84-3.84 7.04-7.04 7.04z m-20.48 0h-2.56c-3.84 0-7.04-3.2-7.04-7.04 0-3.84 3.2-7.04 7.04-7.04h2.56c3.84 0 7.04 3.2 7.04 7.04 0 3.84-3.2 7.04-7.04 7.04z m-20.48 0h-2.56c-3.84 0-7.04-3.2-7.04-7.04 0-3.84 3.2-7.04 7.04-7.04h2.56c3.84 0 7.04 3.2 7.04 7.04 0 3.84-3.2 7.04-7.04 7.04z m-19.84 0h-2.56c-3.84 0-7.04-3.2-7.04-7.04 0-3.84 3.2-7.04 7.04-7.04h2.56c3.84 0 7.04 3.2 7.04 7.04-0.64 3.84-3.2 7.04-7.04 7.04zM890.88 688.64h-1.28c-3.84 0-7.04-3.2-7.04-7.04 0-3.84 3.2-7.04 7.04-7.04h1.28c3.84 0 7.04 3.2 7.04 7.04 0 3.84-3.2 7.04-7.04 7.04zM508.16 632.32h-1.28c-3.84 0-7.04-3.2-7.04-7.04 0-3.84 3.2-7.04 7.04-7.04h1.28c3.84 0 7.04 3.2 7.04 7.04 0 3.84-3.2 7.04-7.04 7.04zM872.32 632.32h-2.56c-3.84 0-7.04-3.2-7.04-7.04 0-3.84 3.2-7.04 7.04-7.04h2.56c3.84 0 7.04 3.2 7.04 7.04 0 3.84-3.2 7.04-7.04 7.04z m-20.48 0h-2.56c-3.84 0-7.04-3.2-7.04-7.04 0-3.84 3.2-7.04 7.04-7.04h2.56c3.84 0 7.04 3.2 7.04 7.04 0 3.84-3.2 7.04-7.04 7.04z m-19.84 0h-2.56c-3.84 0-7.04-3.2-7.04-7.04 0-3.84 3.2-7.04 7.04-7.04h2.56c3.84 0 7.04 3.2 7.04 7.04-0.64 3.84-3.2 7.04-7.04 7.04z m-20.48 0h-2.56c-3.84 0-7.04-3.2-7.04-7.04 0-3.84 3.2-7.04 7.04-7.04h2.56c3.84 0 7.04 3.2 7.04 7.04 0 3.84-3.2 7.04-7.04 7.04z m-19.84 0h-2.56c-3.84 0-7.04-3.2-7.04-7.04 0-3.84 3.2-7.04 7.04-7.04h2.56c3.84 0 7.04 3.2 7.04 7.04-0.64 3.84-3.84 7.04-7.04 7.04z m-20.48 0h-2.56c-3.84 0-7.04-3.2-7.04-7.04 0-3.84 3.2-7.04 7.04-7.04h2.56c3.84 0 7.04 3.2 7.04 7.04 0 3.84-3.2 7.04-7.04 7.04z m-20.48 0h-2.56c-3.84 0-7.04-3.2-7.04-7.04 0-3.84 3.2-7.04 7.04-7.04h2.56c3.84 0 7.04 3.2 7.04 7.04 0 3.84-3.2 7.04-7.04 7.04z m-19.84 0h-2.56c-3.84 0-7.04-3.2-7.04-7.04 0-3.84 3.2-7.04 7.04-7.04h2.56c3.84 0 7.04 3.2 7.04 7.04-0.64 3.84-3.2 7.04-7.04 7.04z m-20.48 0h-2.56c-3.84 0-7.04-3.2-7.04-7.04 0-3.84 3.2-7.04 7.04-7.04h2.56c3.84 0 7.04 3.2 7.04 7.04 0 3.84-3.2 7.04-7.04 7.04z m-19.84 0h-2.56c-3.84 0-7.04-3.2-7.04-7.04 0-3.84 3.2-7.04 7.04-7.04h2.56c3.84 0 7.04 3.2 7.04 7.04-0.64 3.84-3.84 7.04-7.04 7.04z m-20.48 0h-2.56c-3.84 0-7.04-3.2-7.04-7.04 0-3.84 3.2-7.04 7.04-7.04h2.56c3.84 0 7.04 3.2 7.04 7.04 0 3.84-3.2 7.04-7.04 7.04z m-20.48 0h-2.56c-3.84 0-7.04-3.2-7.04-7.04 0-3.84 3.2-7.04 7.04-7.04h2.56c3.84 0 7.04 3.2 7.04 7.04 0 3.84-3.2 7.04-7.04 7.04z m-19.84 0H627.2c-3.84 0-7.04-3.2-7.04-7.04 0-3.84 3.2-7.04 7.04-7.04h2.56c3.84 0 7.04 3.2 7.04 7.04-0.64 3.84-3.2 7.04-7.04 7.04z m-20.48 0h-2.56c-3.84 0-7.04-3.2-7.04-7.04 0-3.84 3.2-7.04 7.04-7.04h2.56c3.84 0 7.04 3.2 7.04 7.04 0 3.84-3.2 7.04-7.04 7.04z m-19.84 0h-2.56c-3.84 0-7.04-3.2-7.04-7.04 0-3.84 3.2-7.04 7.04-7.04h2.56c3.84 0 7.04 3.2 7.04 7.04-0.64 3.84-3.84 7.04-7.04 7.04z m-20.48 0h-2.56c-3.84 0-7.04-3.2-7.04-7.04 0-3.84 3.2-7.04 7.04-7.04h2.56c3.84 0 7.04 3.2 7.04 7.04 0 3.84-3.2 7.04-7.04 7.04z m-20.48 0h-2.56c-3.84 0-7.04-3.2-7.04-7.04 0-3.84 3.2-7.04 7.04-7.04h2.56c3.84 0 7.04 3.2 7.04 7.04 0 3.84-3.2 7.04-7.04 7.04z m-19.84 0h-2.56c-3.84 0-7.04-3.2-7.04-7.04 0-3.84 3.2-7.04 7.04-7.04h2.56c3.84 0 7.04 3.2 7.04 7.04-0.64 3.84-3.2 7.04-7.04 7.04zM890.88 632.32h-1.28c-3.84 0-7.04-3.2-7.04-7.04 0-3.84 3.2-7.04 7.04-7.04h1.28c3.84 0 7.04 3.2 7.04 7.04 0 3.84-3.2 7.04-7.04 7.04z" fill="#211D1C" p-id="10547"></path><path d="M508.16 575.36h-1.28c-3.84 0-7.04-3.2-7.04-7.04 0-3.84 3.2-7.04 7.04-7.04h1.28c3.84 0 7.04 3.2 7.04 7.04 0 3.84-3.2 7.04-7.04 7.04zM872.32 575.36h-2.56c-3.84 0-7.04-3.2-7.04-7.04 0-3.84 3.2-7.04 7.04-7.04h2.56c3.84 0 7.04 3.2 7.04 7.04 0 3.84-3.2 7.04-7.04 7.04z m-20.48 0h-2.56c-3.84 0-7.04-3.2-7.04-7.04 0-3.84 3.2-7.04 7.04-7.04h2.56c3.84 0 7.04 3.2 7.04 7.04 0 3.84-3.2 7.04-7.04 7.04z m-19.84 0h-2.56c-3.84 0-7.04-3.2-7.04-7.04 0-3.84 3.2-7.04 7.04-7.04h2.56c3.84 0 7.04 3.2 7.04 7.04-0.64 3.84-3.2 7.04-7.04 7.04z m-20.48 0h-2.56c-3.84 0-7.04-3.2-7.04-7.04 0-3.84 3.2-7.04 7.04-7.04h2.56c3.84 0 7.04 3.2 7.04 7.04 0 3.84-3.2 7.04-7.04 7.04z m-19.84 0h-2.56c-3.84 0-7.04-3.2-7.04-7.04 0-3.84 3.2-7.04 7.04-7.04h2.56c3.84 0 7.04 3.2 7.04 7.04-0.64 3.84-3.84 7.04-7.04 7.04z m-20.48 0h-2.56c-3.84 0-7.04-3.2-7.04-7.04 0-3.84 3.2-7.04 7.04-7.04h2.56c3.84 0 7.04 3.2 7.04 7.04 0 3.84-3.2 7.04-7.04 7.04z m-20.48 0h-2.56c-3.84 0-7.04-3.2-7.04-7.04 0-3.84 3.2-7.04 7.04-7.04h2.56c3.84 0 7.04 3.2 7.04 7.04 0 3.84-3.2 7.04-7.04 7.04z m-19.84 0h-2.56c-3.84 0-7.04-3.2-7.04-7.04 0-3.84 3.2-7.04 7.04-7.04h2.56c3.84 0 7.04 3.2 7.04 7.04-0.64 3.84-3.2 7.04-7.04 7.04z m-20.48 0h-2.56c-3.84 0-7.04-3.2-7.04-7.04 0-3.84 3.2-7.04 7.04-7.04h2.56c3.84 0 7.04 3.2 7.04 7.04 0 3.84-3.2 7.04-7.04 7.04z m-19.84 0h-2.56c-3.84 0-7.04-3.2-7.04-7.04 0-3.84 3.2-7.04 7.04-7.04h2.56c3.84 0 7.04 3.2 7.04 7.04-0.64 3.84-3.84 7.04-7.04 7.04z m-20.48 0h-2.56c-3.84 0-7.04-3.2-7.04-7.04 0-3.84 3.2-7.04 7.04-7.04h2.56c3.84 0 7.04 3.2 7.04 7.04 0 3.84-3.2 7.04-7.04 7.04z m-20.48 0h-2.56c-3.84 0-7.04-3.2-7.04-7.04 0-3.84 3.2-7.04 7.04-7.04h2.56c3.84 0 7.04 3.2 7.04 7.04 0 3.84-3.2 7.04-7.04 7.04z m-19.84 0H627.2c-3.84 0-7.04-3.2-7.04-7.04 0-3.84 3.2-7.04 7.04-7.04h2.56c3.84 0 7.04 3.2 7.04 7.04-0.64 3.84-3.2 7.04-7.04 7.04z m-20.48 0h-2.56c-3.84 0-7.04-3.2-7.04-7.04 0-3.84 3.2-7.04 7.04-7.04h2.56c3.84 0 7.04 3.2 7.04 7.04 0 3.84-3.2 7.04-7.04 7.04z m-19.84 0h-2.56c-3.84 0-7.04-3.2-7.04-7.04 0-3.84 3.2-7.04 7.04-7.04h2.56c3.84 0 7.04 3.2 7.04 7.04-0.64 3.84-3.84 7.04-7.04 7.04z m-20.48 0h-2.56c-3.84 0-7.04-3.2-7.04-7.04 0-3.84 3.2-7.04 7.04-7.04h2.56c3.84 0 7.04 3.2 7.04 7.04 0 3.84-3.2 7.04-7.04 7.04z m-20.48 0h-2.56c-3.84 0-7.04-3.2-7.04-7.04 0-3.84 3.2-7.04 7.04-7.04h2.56c3.84 0 7.04 3.2 7.04 7.04 0 3.84-3.2 7.04-7.04 7.04z m-19.84 0h-2.56c-3.84 0-7.04-3.2-7.04-7.04 0-3.84 3.2-7.04 7.04-7.04h2.56c3.84 0 7.04 3.2 7.04 7.04-0.64 3.84-3.2 7.04-7.04 7.04zM890.88 575.36h-1.28c-3.84 0-7.04-3.2-7.04-7.04 0-3.84 3.2-7.04 7.04-7.04h1.28c3.84 0 7.04 3.2 7.04 7.04 0 3.84-3.2 7.04-7.04 7.04z" fill="#211D1C" p-id="10548"></path><path d="M195.84 631.04c-1.92 0-3.84-0.64-5.12-1.92-2.56-2.56-2.56-7.04 0-9.6l89.6-89.6c2.56-2.56 7.04-2.56 9.6 0 2.56 2.56 2.56 7.04 0 9.6l-89.6 89.6c-0.64 0.64-2.56 1.92-4.48 1.92zM189.44 737.92c-1.92 0-3.84-0.64-5.12-1.92-2.56-2.56-2.56-7.04 0-9.6l174.72-174.72c2.56-2.56 7.04-2.56 9.6 0 2.56 2.56 2.56 7.04 0 9.6L194.56 736c-1.92 1.28-3.2 1.92-5.12 1.92zM189.44 771.2c-1.92 0-3.84-0.64-5.12-1.92-2.56-2.56-2.56-7.04 0-9.6l192.64-192.64c2.56-2.56 7.04-2.56 9.6 0 2.56 2.56 2.56 7.04 0 9.6l-192.64 192.64c-1.28 1.28-2.56 1.92-4.48 1.92zM189.44 704.64c-1.92 0-3.84-0.64-5.12-1.92-2.56-2.56-2.56-7.04 0-9.6l153.6-153.6c2.56-2.56 7.04-2.56 9.6 0 2.56 2.56 2.56 7.04 0 9.6l-153.6 153.6c-1.28 1.28-2.56 1.92-4.48 1.92zM189.44 670.72c-1.92 0-3.84-0.64-5.12-1.92-2.56-2.56-2.56-7.04 0-9.6L313.6 529.92c2.56-2.56 7.04-2.56 9.6 0 2.56 2.56 2.56 7.04 0 9.6l-129.28 129.28c-1.28 1.28-2.56 1.92-4.48 1.92zM189.44 804.48c-1.92 0-3.84-0.64-5.12-1.92-2.56-2.56-2.56-7.04 0-9.6l207.36-207.36c2.56-2.56 7.04-2.56 9.6 0 2.56 2.56 2.56 7.04 0 9.6l-207.36 207.36c-1.28 1.28-2.56 1.92-4.48 1.92zM288 807.04c-1.92 0-3.84-0.64-5.12-1.92-2.56-2.56-2.56-7.04 0-9.6L412.16 665.6c2.56-2.56 7.04-2.56 9.6 0 2.56 2.56 2.56 7.04 0 9.6l-129.28 129.28c-1.28 1.92-3.2 2.56-4.48 2.56zM321.28 807.04c-1.92 0-3.2-0.64-5.12-1.92-2.56-2.56-2.56-7.04 0-9.6l96-96c2.56-2.56 7.04-2.56 9.6 0 2.56 2.56 2.56 7.04 0 9.6l-96 96c-1.28 1.28-2.56 1.92-4.48 1.92zM254.08 807.04c-1.92 0-3.84-0.64-5.12-1.92-2.56-2.56-2.56-7.04 0-9.6l161.28-161.28c2.56-2.56 7.04-2.56 9.6 0 2.56 2.56 2.56 7.04 0 9.6l-161.28 161.28c-0.64 1.28-2.56 1.92-4.48 1.92zM220.8 807.04c-1.92 0-3.2-0.64-5.12-1.92-2.56-2.56-2.56-7.04 0-9.6L403.2 608c2.56-2.56 7.04-2.56 9.6 0 2.56 2.56 2.56 7.04 0 9.6l-187.52 187.52c-1.28 1.28-2.56 1.92-4.48 1.92zM383.36 807.04c-1.92 0-3.2-0.64-5.12-1.92-2.56-2.56-2.56-7.04 0-9.6l33.28-33.28c2.56-2.56 7.04-2.56 9.6 0 2.56 2.56 2.56 7.04 0 9.6l-33.28 33.28c-0.64 1.28-2.56 1.92-4.48 1.92zM354.56 807.04c-1.92 0-3.84-0.64-5.12-1.92-2.56-2.56-2.56-7.04 0-9.6l62.08-62.08c2.56-2.56 7.04-2.56 9.6 0 2.56 2.56 2.56 7.04 0 9.6l-62.08 62.08c-0.64 1.28-2.56 1.92-4.48 1.92z" fill="#211D1C" p-id="10549"></path><path d="M417.28 807.04H159.36c-3.84 0-7.04-3.2-7.04-7.04v-140.16c0-74.88 60.8-135.68 135.68-135.68s135.68 60.8 135.68 135.68V800c0 3.84-3.2 7.04-6.4 7.04z m-251.52-14.08h244.48v-133.12C410.24 592.64 355.2 537.6 288 537.6c-67.2 0-122.24 55.04-122.24 122.24v133.12z" fill="#211D1C" p-id="10550"></path><path d="M189.44 807.04c-3.84 0-7.04-3.2-7.04-7.04v-140.16c0-66.56 48-122.88 113.28-133.76 3.84-0.64 7.04 1.92 7.68 5.76 0.64 3.84-1.92 7.04-5.76 7.68-58.88 9.6-101.76 60.16-101.76 120.32V800c0.64 3.84-2.56 7.04-6.4 7.04z" fill="#211D1C" p-id="10551"></path><path d="M334.08 312.96h-46.72c-3.84 0-7.04-3.2-7.04-7.04 0-3.84 3.2-7.04 7.04-7.04h46.72c3.84 0 7.04 3.2 7.04 7.04 0 3.84-3.2 7.04-7.04 7.04z" fill="#211D1C" p-id="10552"></path><path d="M350.72 512c-15.36 0-28.16-12.8-28.16-28.16v-1.92H253.44v1.92c0 15.36-12.8 28.16-28.16 28.16-15.36 0-28.16-12.8-28.16-28.16 0-8.32 3.84-16 9.6-21.12-5.76-5.12-9.6-12.8-9.6-21.12 0-15.36 12.8-28.16 28.16-28.16 15.36 0 28.16 12.8 28.16 28.16v1.92h69.76V441.6c0-15.36 12.8-28.16 28.16-28.16 15.36 0 28.16 12.8 28.16 28.16 0 8.32-3.84 16-9.6 21.12 5.76 5.12 9.6 12.8 9.6 21.12-0.64 15.36-13.44 28.16-28.8 28.16z m-106.24-43.52h87.04c2.56 0 4.48 1.28 5.76 3.2 1.28 1.92 1.28 4.48 0.64 6.4-0.64 1.92-1.28 3.84-1.28 5.76 0 7.68 6.4 14.08 14.08 14.08s14.08-6.4 14.08-14.08c0-7.68-6.4-14.08-14.08-14.08-3.84 0-7.04-3.2-7.04-7.04 0-3.84 3.2-7.04 7.04-7.04 7.68 0 14.08-6.4 14.08-14.08 0-7.68-6.4-14.08-14.08-14.08s-14.08 6.4-14.08 14.08c0 1.92 0.64 3.84 1.28 5.76 1.28 1.92 0.64 4.48-0.64 6.4-1.28 1.92-3.2 3.2-5.76 3.2H244.48c-2.56 0-4.48-1.28-5.76-3.2-1.28-1.92-1.28-4.48-0.64-6.4 0.64-1.92 1.28-3.84 1.28-5.76 0-7.68-6.4-14.08-14.08-14.08S211.2 433.92 211.2 441.6c0 7.68 6.4 14.08 14.08 14.08 3.84 0 7.04 3.2 7.04 7.04 0 3.84-3.2 7.04-7.04 7.04-7.68 0-14.08 6.4-14.08 14.08 0 7.68 6.4 14.08 14.08 14.08s14.08-6.4 14.08-14.08c0-1.92-0.64-3.84-1.28-5.76-1.28-1.92-0.64-4.48 0.64-6.4 1.28-1.92 3.2-3.2 5.76-3.2z" fill="#00ABE0" p-id="10553"></path></svg>
